<?xml version="1.0" standalone="no"?>
<!DOCTYPE svg PUBLIC "-//W3C//DTD SVG 20010904//EN"
 "http://www.w3.org/TR/2001/REC-SVG-20010904/DTD/svg10.dtd">
<svg version="1.0" xmlns="http://www.w3.org/2000/svg"
 width="473.000000pt" height="473.000000pt" viewBox="0 0 473.000000 473.000000"
 preserveAspectRatio="xMidYMid meet">
<metadata>
Created by potrace 1.14, written by Peter Selinger 2001-2017
</metadata>
<g transform="translate(0.000000,473.000000) scale(0.100000,-0.100000)"
fill="#000000" stroke="none">
<path d="M1955 4714 c-300 -72 -578 -238 -764 -456 -188 -220 -298 -452 -346
-733 -28 -160 -23 -450 11 -603 4 -20 2 -22 -15 -13 -11 6 -35 11 -54 11 -35
0 -54 -15 -76 -58 -19 -35 -31 -242 -21 -335 11 -91 45 -158 144 -282 31 -38
77 -107 102 -153 26 -45 62 -96 81 -113 30 -26 42 -30 80 -27 l45 3 38 -105
c53 -147 63 -167 134 -288 81 -135 165 -247 254 -339 l70 -71 -36 -24 c-49
-32 -67 -60 -106 -163 -69 -186 -110 -245 -244 -356 -22 -18 -33 -38 -38 -66
-6 -40 -7 -41 -63 -52 -31 -6 -162 -27 -292 -46 -297 -45 -366 -62 -508 -131
-102 -50 -124 -66 -200 -143 -47 -47 -96 -105 -109 -128 l-23 -43 1159 0 1159
0 -17 117 c-23 156 -37 220 -66 305 -48 142 -81 176 -294 301 -52 30 -113 69
-135 85 l-40 30 0 94 0 94 68 -44 c150 -97 315 -150 492 -158 96 -5 122 -3
205 19 112 29 222 78 320 141 39 25 72 46 73 46 1 0 0 -29 -1 -65 -2 -36 1
-79 7 -95 10 -29 8 -31 -52 -73 -34 -24 -107 -70 -162 -102 -176 -103 -246
-190 -294 -365 -21 -77 -51 -253 -51 -302 l0 -28 1145 0 c630 0 1145 3 1145 6
0 14 -64 96 -116 148 -120 119 -249 188 -478 252 -74 21 -444 102 -554 121
-23 4 -36 13 -43 30 -5 14 -53 68 -107 122 -118 116 -154 177 -183 302 -19 84
-26 98 -64 136 l-41 42 68 68 c175 172 335 442 415 698 9 27 13 29 49 27 57
-4 96 25 140 105 41 74 92 150 154 228 22 28 57 82 77 120 l38 70 -1 165 c0
178 -9 222 -49 260 -20 19 -32 22 -70 18 -39 -5 -45 -3 -41 11 24 89 37 315
26 458 -29 375 -174 689 -440 953 -175 173 -406 302 -657 366 -92 23 -107 24
-442 23 -264 0 -360 -4 -406 -15z m-167 -769 c35 -3 111 -20 170 -38 l107 -32
300 0 300 0 115 33 c202 58 416 54 524 -11 21 -13 66 -52 101 -86 72 -71 109
-143 151 -291 25 -87 28 -110 28 -276 l1 -182 35 -48 c34 -48 35 -51 34 -139
-1 -76 -18 -199 -41 -292 -5 -22 -2 -23 51 -23 31 0 56 -1 56 -3 0 -14 -109
-405 -145 -523 -91 -291 -89 -287 -244 -443 -402 -405 -756 -574 -1089 -522
-253 39 -554 228 -859 538 -138 140 -139 142 -228 427 -36 118 -145 509 -145
523 0 2 25 3 55 3 30 0 55 1 55 3 0 2 -9 44 -20 94 -43 200 -39 298 16 364
l34 41 -6 122 c-7 142 8 247 57 400 71 218 207 343 399 366 36 4 79 6 95 4 17
-2 58 -6 93 -9z m-940 -1072 c20 -18 66 -179 56 -195 -3 -4 -1 -8 4 -8 15 0 7
-35 -16 -67 -38 -53 -62 -116 -62 -164 0 -48 18 -73 82 -114 l28 -17 -16 38
c-21 49 -15 136 11 164 14 16 21 18 27 8 5 -8 6 -1 2 17 -4 19 -3 26 3 20 5
-5 27 -75 48 -155 21 -80 55 -203 76 -274 21 -72 36 -133 33 -138 -3 -4 -20
-8 -39 -8 -25 0 -39 8 -60 33 -26 30 -125 194 -125 206 0 3 18 -13 40 -34 22
-21 40 -37 40 -34 0 3 -23 27 -52 54 -29 28 -46 41 -38 30 15 -20 15 -20 -8
-1 -12 11 -21 25 -18 32 2 6 -16 30 -41 53 -30 27 -43 46 -39 56 3 9 2 13 -4
10 -15 -9 -50 71 -61 139 -11 66 -2 276 11 276 5 0 7 -53 4 -117 l-4 -118 16
74 c14 70 47 151 61 151 4 0 18 -10 32 -22 l26 -23 -20 24 c-27 32 -72 53 -95
46 -25 -8 -27 20 -4 53 19 27 73 30 102 5z m3126 -2 c24 -27 39 -151 34 -286
-4 -88 -9 -118 -27 -153 -13 -26 -26 -40 -33 -36 -7 4 -8 3 -4 -5 7 -11 -37
-91 -50 -91 -4 0 0 8 7 18 13 15 12 16 -3 3 -10 -7 -15 -17 -12 -22 3 -5 -12
-29 -33 -53 -21 -24 -60 -83 -88 -132 -62 -112 -84 -134 -130 -134 -19 0 -35
2 -35 4 0 3 24 90 54 193 29 103 62 220 72 260 12 46 21 68 27 60 5 -7 6 1 2
20 -4 20 -2 34 6 39 8 4 10 3 5 -4 -4 -6 2 -20 13 -31 41 -41 46 -154 8 -200
-10 -12 -9 -13 13 -1 58 29 89 61 96 95 8 43 -14 109 -56 172 -24 36 -30 52
-24 72 4 14 7 29 6 34 -2 6 13 11 30 8 4 0 5 5 2 12 -4 12 51 77 66 77 16 0
51 -105 60 -178 7 -71 8 -65 7 62 -1 110 -4 139 -15 144 -23 8 -80 -28 -112
-72 -17 -22 -30 -37 -30 -33 0 27 36 145 48 160 20 23 74 22 96 -2z m-3129
-581 c10 -11 16 -20 13 -20 -3 0 -13 9 -23 20 -10 11 -16 20 -13 20 3 0 13 -9
23 -20z"/>
<path d="M1485 3117 c-65 -22 -117 -52 -165 -96 l-45 -42 40 24 c129 77 218
80 419 18 77 -24 171 -49 210 -56 64 -11 51 -12 -129 -7 -231 6 -518 -12 -552
-33 -12 -8 -24 -24 -28 -35 -5 -17 -15 -20 -66 -20 l-59 0 0 -35 0 -35 55 0
55 0 0 -60 c0 -90 16 -72 24 27 8 102 21 134 61 146 44 13 602 20 728 9 92 -8
111 -12 133 -33 26 -23 26 -26 20 -117 -4 -72 -3 -93 7 -89 15 5 26 62 26 140
l1 57 145 0 145 0 1 -52 c1 -78 12 -141 26 -145 10 -4 11 17 7 89 -6 91 -6 94
20 117 22 21 41 25 133 33 126 11 684 4 728 -9 41 -12 55 -46 62 -148 3 -47
10 -85 14 -85 9 0 12 31 9 88 l-2 32 61 0 61 0 0 35 0 35 -64 0 c-56 0 -66 3
-71 20 -4 11 -16 27 -28 35 -34 21 -321 39 -552 33 -180 -5 -193 -4 -129 7 39
7 133 32 210 56 201 62 290 59 419 -18 l40 -24 -45 42 c-25 23 -74 56 -110 73
-60 29 -72 31 -170 30 -83 0 -141 -8 -275 -38 -173 -39 -247 -68 -253 -99 -2
-10 7 -21 24 -29 26 -12 24 -13 -47 -25 -41 -6 -137 -11 -214 -11 -77 0 -173
5 -214 11 -71 12 -73 13 -47 25 17 8 26 19 24 29 -6 32 -80 60 -253 98 -191
42 -327 53 -390 32z"/>
<path d="M1640 2853 c-107 -18 -178 -54 -219 -112 l-21 -29 33 -25 33 -25 -4
28 c-3 22 3 33 30 53 35 27 115 66 135 67 9 0 9 -8 1 -30 -14 -41 -3 -93 28
-129 13 -16 21 -32 16 -35 -20 -12 -152 -9 -168 5 -16 13 -16 12 -5 -8 14 -27
21 -27 196 -13 151 12 252 28 287 46 47 24 39 31 -15 13 -29 -9 -69 -20 -89
-23 l-38 -7 21 36 c22 36 28 110 12 126 -5 5 -9 -4 -8 -19 0 -21 -5 -28 -23
-30 -29 -4 -47 11 -61 49 -9 26 -8 29 16 35 15 4 35 2 46 -5 11 -7 16 -8 12
-2 -4 7 11 11 43 11 43 0 55 -5 96 -41 57 -50 59 -40 5 24 l-41 47 -146 -1
c-81 -1 -158 -4 -172 -6z m48 -166 c2 -10 -3 -17 -12 -17 -18 0 -29 16 -21 31
9 14 29 6 33 -14z"/>
<path d="M2724 2816 c-57 -60 -57 -78 0 -31 36 29 56 37 102 42 l56 6 -15 -24
c-28 -45 -29 -81 -4 -132 14 -27 19 -47 13 -47 -26 0 -141 32 -153 42 -7 6
-16 8 -19 5 -12 -12 51 -41 114 -53 84 -16 367 -38 387 -30 8 3 15 10 15 16 0
6 -5 8 -11 4 -12 -7 -150 -6 -158 2 -2 2 5 14 17 27 31 33 44 77 36 117 -7 33
-7 34 -13 10 -10 -37 -61 -35 -79 3 -7 15 -10 32 -7 37 8 13 62 13 70 0 4 -6
11 -8 16 -5 12 8 95 -29 137 -62 27 -20 33 -31 30 -53 l-4 -28 33 25 c31 24
32 28 20 47 -24 36 -95 85 -150 102 -36 12 -103 18 -220 21 l-168 5 -45 -46z
m185 -119 c12 -15 5 -27 -16 -27 -7 0 -13 9 -13 20 0 23 13 26 29 7z"/>
<path d="M2310 2508 c-14 -57 -125 -454 -138 -494 -16 -52 3 -75 93 -111 44
-18 84 -33 89 -33 4 0 -8 18 -28 40 -19 22 -38 51 -42 65 -3 14 3 99 15 188
22 175 38 387 28 387 -3 0 -11 -19 -17 -42z"/>
<path d="M2390 1951 c0 -12 56 -25 70 -16 6 3 8 11 5 16 -8 12 -75 12 -75 0z"/>
<path d="M2300 1802 c-54 -6 -237 -55 -278 -74 -43 -21 -72 -59 -72 -98 0 -19
4 -20 53 -14 28 3 94 15 146 25 51 11 106 19 122 19 40 0 61 35 57 97 -3 45
-5 48 -28 45z"/>
<path d="M2400 1756 c0 -63 20 -96 59 -96 16 0 71 -9 122 -19 52 -10 118 -22
147 -26 49 -6 52 -6 52 15 0 39 -28 77 -72 98 -42 19 -167 53 -260 71 l-48 8
0 -51z"/>
<path d="M2021 1554 c147 -152 541 -152 688 0 l35 36 -379 0 -379 0 35 -36z
m664 -4 c-60 -63 -182 -100 -325 -100 -125 0 -248 40 -325 105 l-30 25 354 0
355 0 -29 -30z"/>
<path d="M870 2721 c5 -11 15 -23 21 -27 6 -3 3 5 -6 20 -20 30 -30 35 -15 7z"/>
<path d="M834 2658 c-34 -53 -64 -119 -63 -138 0 -8 9 6 19 32 11 26 30 65 43
85 36 59 39 63 33 63 -3 0 -18 -19 -32 -42z"/>
<path d="M756 2492 c-3 -5 -1 -22 4 -38 8 -29 8 -29 9 9 1 36 -3 45 -13 29z"/>
<path d="M963 2405 c0 -22 2 -30 4 -17 2 12 2 30 0 40 -3 9 -5 -1 -4 -23z"/>
<path d="M950 2306 c0 -2 8 -10 18 -17 15 -13 16 -12 3 4 -13 16 -21 21 -21
13z"/>
<path d="M1012 2265 c4 -6 12 -22 17 -36 6 -15 10 -18 10 -8 1 9 -7 25 -16 36
-10 10 -15 14 -11 8z"/>
<path d="M980 2241 c0 -6 4 -13 10 -16 6 -3 7 1 4 9 -7 18 -14 21 -14 7z"/>
<path d="M3906 2605 c24 -47 44 -99 44 -115 0 -17 5 -30 10 -30 13 0 13 -4 -6
61 -15 53 -67 153 -84 164 -4 3 12 -34 36 -80z"/>
<path d="M3752 2450 c0 -14 2 -19 5 -12 2 6 2 18 0 25 -3 6 -5 1 -5 -13z"/>
<path d="M3951 2434 c0 -11 3 -14 6 -6 3 7 2 16 -1 19 -3 4 -6 -2 -5 -13z"/>
<path d="M3751 2364 c0 -11 3 -14 6 -6 3 7 2 16 -1 19 -3 4 -6 -2 -5 -13z"/>
<path d="M3732 2308 c-7 -13 -19 -33 -28 -45 -9 -13 -14 -23 -12 -23 9 0 61
80 56 85 -3 3 -10 -5 -16 -17z"/>
<path d="M3800 2213 l-65 -68 68 65 c62 60 72 70 64 70 -1 0 -32 -30 -67 -67z"/>
<path d="M3716 2225 c-11 -8 -15 -15 -9 -15 6 0 16 7 23 15 16 19 11 19 -14 0z"/>
<path d="M3682 2210 c0 -14 2 -19 5 -12 2 6 2 18 0 25 -3 6 -5 1 -5 -13z"/>
</g>
</svg>
